<svg width="107" height="40" viewBox="0 0 107 40" fill="none" xmlns="http://www.w3.org/2000/svg">
<g clip-path="url(#clip0_602_2)">
<path fill-rule="evenodd" clip-rule="evenodd" d="M27.0695 3.75246C27.1296 3.57238 27.2981 3.45093 27.488 3.45093L35.0366 3.45093C35.3455 3.45093 35.5588 3.76019 35.4489 4.04889L23.2724 36.0622C23.2572 36.1023 23.2201 36.1299 23.1774 36.133L21.9104 36.2265C21.9048 36.2269 21.8992 36.2269 21.8936 36.2264L20.6447 36.1278L19.7845 36.0396L18.4722 35.7639L17.4576 35.4441L16.3418 35C16.3285 34.9947 16.3143 34.992 16.2999 34.9921L15.5858 34.9992C15.5352 34.9997 15.4908 34.9657 15.478 34.9168L15.3622 34.4736L3.87551 4.04787C3.76658 3.75933 3.9798 3.45093 4.28822 3.45093L11.9219 3.45093C12.1126 3.45093 12.2817 3.57346 12.3411 3.75468L18.2185 21.6885L19.2299 24.4976C19.3696 24.8856 19.9179 24.8868 20.0593 24.4995L21.0859 21.6885L27.0695 3.75246ZM54.0273 17.729C54.0273 17.7076 54.0335 17.6867 54.0452 17.6688L57.0419 13.0655L60.0779 8.86326C60.1405 8.77654 60.2775 8.82086 60.2775 8.92785L60.2775 31.0538C60.2775 31.2974 60.475 31.4949 60.7187 31.4949L74.6503 31.4949C74.8939 31.4949 75.0914 31.6924 75.0914 31.936L75.0914 36.4334C75.0914 36.677 74.8939 36.8745 74.6503 36.8745L54.4684 36.8745C54.2248 36.8745 54.0273 36.677 54.0273 36.4334L54.0273 17.729ZM94.9291 30.7076C95.1219 30.7076 95.2924 30.8328 95.3501 31.0168L97.0872 36.5575C97.1449 36.7415 97.3154 36.8667 97.5082 36.8667L103.356 36.8667C103.658 36.8667 103.871 36.5687 103.773 36.2824L93.5028 6.35441C93.4782 6.28272 93.3903 6.25664 93.3306 6.30331L88.0487 10.4318L83.2771 14.5109C83.2169 14.5623 83.1717 14.629 83.1462 14.704L75.7957 36.2833C75.6982 36.5695 75.9109 36.8667 76.2133 36.8667L81.8253 36.8667C82.0147 36.8667 82.1829 36.7458 82.2434 36.5663L84.1145 31.008C84.1749 30.8285 84.3432 30.7076 84.5326 30.7076L94.9291 30.7076ZM93.3227 24.9701C93.413 25.2545 93.2007 25.5446 92.9023 25.5446L86.5114 25.5446C86.2113 25.5446 85.9988 25.2514 86.0922 24.9661L89.3389 15.0552C89.4723 14.6482 90.0491 14.6509 90.1786 15.0592L93.3227 24.9701Z" fill="#E5F96A"/>
<path d="M3.65721 25.9808C6.69165 29.4078 15.4233 44.9854 33.1335 31.55M33.1335 31.55C40.5069 25.5389 49.6864 10.4124 48.3856 4.85683C47.2864 0.162521 43.8116 2.02851 40.5996 7.24761C36.6907 13.5989 33.1673 28.0402 33.1335 31.55ZM33.1335 31.55C31.8782 39.3861 37.5992 39.9285 44.2798 31.096C50.9604 22.2635 51.3349 21.3841 58.4146 11.328C63.999 3.39582 65.5414 1.75136 68.0119 2.51471C72.5846 3.92762 65.6911 22.8688 73.6806 21.5992C81.1019 20.4199 96.7183 2.63655 102.641 2.69359" stroke="#E5F96A" stroke-width="2.87355" stroke-linecap="square" stroke-linejoin="round"/>
<path d="M3.65749 25.9804C6.69192 29.4073 15.4236 44.9849 33.1338 31.5496C40.5072 25.5385 49.5934 10.3869 48.2925 4.83132" stroke="#E5F96A" stroke-width="2.87355" stroke-linecap="round" stroke-linejoin="round"/>
</g>
<defs>
<clipPath id="clip0_602_2">
<rect width="106.781" height="39.9998" fill="white"/>
</clipPath>
</defs>
</svg>
