<svg width="107" height="40" viewBox="0 0 107 40" fill="none" xmlns="http://www.w3.org/2000/svg">
<g opacity="0.8" clip-path="url(#clip0_581_2)">
<g style="mix-blend-mode:luminosity">
<path fill-rule="evenodd" clip-rule="evenodd" d="M26.1616 3.76497C26.2219 3.58427 26.391 3.4624 26.5815 3.4624L34.156 3.4624C34.466 3.4624 34.68 3.77272 34.5698 4.06241L22.3515 36.1854C22.3362 36.2255 22.2991 36.2532 22.2562 36.2564L20.9848 36.3502C20.9792 36.3506 20.9736 36.3506 20.968 36.3501L19.7149 36.2512L18.8517 36.1627L17.5349 35.886L16.5168 35.5651L15.377 35.1114L14.4506 34.6109C14.4271 34.5983 14.4091 34.5776 14.3996 34.5526L2.88824 4.06138C2.77894 3.77186 2.99289 3.4624 3.30236 3.4624L10.9621 3.4624C11.1535 3.4624 11.3232 3.58536 11.3828 3.76719L17.2804 21.7624L18.2952 24.5811C18.4354 24.9704 18.9855 24.9717 19.1275 24.583L20.1575 21.7624L26.1616 3.76497ZM53.2109 17.7891C53.2109 17.7677 53.2172 17.7467 53.2289 17.7288L56.2359 13.1097L59.2822 8.89305C59.3451 8.80604 59.4826 8.85051 59.4826 8.95786L59.4826 31.1595C59.4826 31.404 59.6807 31.6022 59.9252 31.6022L73.9045 31.6022C74.149 31.6022 74.3471 31.8004 74.3471 32.0448L74.3471 36.5576C74.3471 36.802 74.149 37.0002 73.9045 37.0002L53.6536 37.0002C53.4091 37.0002 53.2109 36.802 53.2109 36.5576L53.2109 17.7891ZM94.2538 30.813C94.4473 30.813 94.6183 30.9387 94.6762 31.1233L96.4193 36.683C96.4772 36.8676 96.6482 36.9932 96.8417 36.9932L102.709 36.9932C103.013 36.9932 103.226 36.6942 103.128 36.4069L92.8226 6.37643C92.7979 6.3045 92.7097 6.27833 92.6498 6.32516L87.3498 10.4678L82.5619 14.5609C82.5015 14.6125 82.4561 14.6794 82.4305 14.7546L75.0549 36.4078C74.957 36.695 75.1705 36.9932 75.4739 36.9932L81.1051 36.9932C81.2951 36.9932 81.464 36.8719 81.5246 36.6918L83.4021 31.1145C83.4628 30.9343 83.6316 30.813 83.8216 30.813L94.2538 30.813ZM92.6419 25.0558C92.7325 25.3412 92.5194 25.6323 92.22 25.6323L85.8073 25.6323C85.5061 25.6323 85.2929 25.3381 85.3867 25.0519L88.6444 15.107C88.7783 14.6986 89.357 14.7013 89.487 15.111L92.6419 25.0558Z" fill="white"/>
</g>
<path d="M2.67009 26.0694C5.71491 29.5081 14.4764 45.139 32.2473 31.6577M32.2473 31.6577C39.646 25.6261 48.8569 10.4477 47.5516 4.87312C46.4486 0.16274 42.962 2.03512 39.7389 7.27208C35.8167 13.6452 32.2812 28.1359 32.2473 31.6577ZM32.2473 31.6577C30.9876 39.5206 36.7283 40.0649 43.4318 31.2021C50.1352 22.3394 50.511 21.4569 57.615 11.3664C63.2185 3.40711 64.7662 1.75702 67.2451 2.52298C71.8335 3.94073 64.9163 22.9468 72.9332 21.6728C80.3799 20.4895 96.0498 2.64524 101.993 2.70248" stroke="white" stroke-width="2.88339" stroke-linecap="square" stroke-linejoin="round"/>
<path d="M2.67045 26.0691C5.71527 29.5078 14.4768 45.1387 32.2477 31.6574C39.6463 25.6258 48.7636 10.4223 47.4583 4.84768" stroke="url(#paint0_linear_581_2)" stroke-width="2.88339" stroke-linecap="round" stroke-linejoin="round"/>
</g>
<defs>
<linearGradient id="paint0_linear_581_2" x1="29.8235" y1="31.8333" x2="44.4902" y2="15.9214" gradientUnits="userSpaceOnUse">
<stop offset="0.165499" stop-color="#EFEFED"/>
<stop offset="1" stop-color="#EFEFED" stop-opacity="0"/>
</linearGradient>
<clipPath id="clip0_581_2">
<rect width="106.782" height="40" fill="white"/>
</clipPath>
</defs>
</svg>
