<svg width="86" height="32" viewBox="0 0 86 32" fill="none" xmlns="http://www.w3.org/2000/svg">
<g clip-path="url(#clip0_582_15)">
<path fill-rule="evenodd" clip-rule="evenodd" d="M22.294 3.73858C22.3413 3.59691 22.4738 3.50138 22.6232 3.50138L28.5614 3.50138C28.8044 3.50138 28.9721 3.74466 28.8857 3.97176L19.307 29.1553C19.295 29.1868 19.2659 29.2085 19.2323 29.211L18.2355 29.2845C18.2311 29.2848 18.2267 29.2848 18.2223 29.2845L17.2399 29.2069L16.5632 29.1375L15.5308 28.9206L14.7327 28.669L13.8391 28.3133L13.1128 27.921C13.0945 27.911 13.0803 27.8948 13.0729 27.8753L4.04829 3.97096C3.9626 3.74398 4.13033 3.50137 4.37295 3.50137L10.378 3.50137C10.528 3.50137 10.6611 3.59777 10.7078 3.74032L15.3313 17.8481L16.1269 20.0579C16.2368 20.3631 16.6681 20.364 16.7794 20.0593L17.5869 17.8481L22.294 3.73858ZM43.5001 13.9467C43.5001 13.9299 43.505 13.9134 43.5142 13.8994L45.8716 10.2781L48.2598 6.9724C48.3091 6.90418 48.4169 6.93905 48.4169 7.02321L48.4169 24.4287C48.4169 24.6204 48.5723 24.7757 48.7639 24.7757L59.7233 24.7757C59.915 24.7757 60.0703 24.9311 60.0703 25.1228L60.0703 28.6606C60.0703 28.8523 59.915 29.0076 59.7233 29.0076L43.8471 29.0076C43.6555 29.0076 43.5001 28.8523 43.5001 28.6606L43.5001 13.9467ZM75.6757 24.1565C75.8273 24.1565 75.9614 24.255 76.0068 24.3997L77.3734 28.7583C77.4188 28.9031 77.5529 29.0015 77.7045 29.0015L82.3044 29.0015C82.5426 29.0015 82.71 28.7671 82.6327 28.5419L74.5537 4.99884C74.5343 4.94245 74.4651 4.92193 74.4182 4.95865L70.2631 8.20636L66.5095 11.4152C66.4622 11.4557 66.4266 11.5081 66.4066 11.5671L60.6242 28.5426C60.5476 28.7677 60.7149 29.0015 60.9527 29.0015L65.3675 29.0015C65.5165 29.0015 65.6488 28.9064 65.6963 28.7652L67.1683 24.3928C67.2158 24.2516 67.3482 24.1565 67.4971 24.1565L75.6757 24.1565ZM74.412 19.643C74.483 19.8667 74.316 20.0949 74.0812 20.0949L69.0539 20.0949C68.8177 20.0949 68.6506 19.8643 68.7241 19.6399L71.2781 11.8434C71.383 11.5232 71.8368 11.5253 71.9387 11.8465L74.412 19.643Z" fill="#E5F96A"/>
<path d="M3.87693 20.438C6.26399 23.1339 13.1328 35.3881 27.0647 24.8191M27.0647 24.8191C32.865 20.0904 40.0861 8.19102 39.0628 3.82071C38.1981 0.127901 35.4647 1.5958 32.9379 5.70143C29.8629 10.6977 27.0913 22.0581 27.0647 24.8191ZM27.0647 24.8191C26.0771 30.9834 30.5776 31.4101 35.833 24.4619C41.0883 17.5138 41.3829 16.822 46.9522 8.91128C51.3452 2.6714 52.5585 1.37777 54.502 1.97827C58.0991 3.08974 52.6763 17.99 58.9613 16.9912C64.7993 16.0635 77.084 2.07412 81.7432 2.11898" stroke="#E5F96A" stroke-width="2.2605" stroke-linecap="round" stroke-linejoin="round"/>
<path d="M3.87661 20.4374C6.26367 23.1333 13.1325 35.3875 27.0644 24.8185C32.8647 20.0898 40.0124 8.17068 38.9891 3.80037" stroke="url(#paint0_linear_582_15)" stroke-width="2.2605" stroke-linecap="round" stroke-linejoin="round"/>
</g>
<defs>
<linearGradient id="paint0_linear_582_15" x1="25.1639" y1="24.9564" x2="36.6621" y2="12.4819" gradientUnits="userSpaceOnUse">
<stop stop-color="#E5F96A"/>
<stop offset="1" stop-color="#E5F96A" stop-opacity="0"/>
</linearGradient>
<clipPath id="clip0_582_15">
<rect width="85.4253" height="32" fill="white"/>
</clipPath>
</defs>
</svg>
